<?xml version="1.0" encoding="UTF-8" standalone="no"?>
<!-- Created with Inkscape (http://www.inkscape.org/) -->

<svg
   xmlns:dc="http://purl.org/dc/elements/1.1/"
   xmlns:cc="http://creativecommons.org/ns#"
   xmlns:rdf="http://www.w3.org/1999/02/22-rdf-syntax-ns#"
   xmlns:svg="http://www.w3.org/2000/svg"
   xmlns="http://www.w3.org/2000/svg"
   xmlns:sodipodi="http://sodipodi.sourceforge.net/DTD/sodipodi-0.dtd"
   xmlns:inkscape="http://www.inkscape.org/namespaces/inkscape"
   width="2125.9841"
   height="1417.3228"
   id="svg2"
   version="1.1"
   inkscape:version="0.48.2 r9819"
   sodipodi:docname="cut1.dxf">
  <defs
     id="defs4" />
  <sodipodi:namedview
     id="base"
     pagecolor="#ffffff"
     bordercolor="#666666"
     borderopacity="1.0"
     inkscape:pageopacity="0.0"
     inkscape:pageshadow="2"
     inkscape:zoom="0.26168512"
     inkscape:cx="959.90031"
     inkscape:cy="899.4602"
     inkscape:document-units="mm"
     inkscape:current-layer="layer1"
     showgrid="true"
     inkscape:window-width="1440"
     inkscape:window-height="876"
     inkscape:window-x="0"
     inkscape:window-y="24"
     inkscape:window-maximized="1"
     units="mm"
     showguides="false"
     inkscape:guide-bbox="true"
     fit-margin-top="5"
     fit-margin-left="5"
     fit-margin-right="5"
     fit-margin-bottom="5">
    <inkscape:grid
       type="xygrid"
       id="grid3833"
       empspacing="5"
       visible="true"
       enabled="true"
       snapvisiblegridlinesonly="true"
       units="mm"
       spacingx="1mm"
       spacingy="1mm"
       originx="40mm"
       originy="161.00001mm" />
    <sodipodi:guide
       orientation="0,1"
       position="1417.3228,1456.2992"
       id="guide95480" />
    <sodipodi:guide
       orientation="1,0"
       position="212.59843,783.0709"
       id="guide95482" />
    <sodipodi:guide
       orientation="1,0"
       position="496.06299,747.63783"
       id="guide95484" />
    <sodipodi:guide
       orientation="0,1"
       position="460.62992,960.23626"
       id="guide95486" />
    <sodipodi:guide
       orientation="0,1"
       position="531.49606,1243.7008"
       id="guide95488" />
    <sodipodi:guide
       orientation="0,1"
       position="1488.189,1172.8347"
       id="guide95490" />
    <sodipodi:guide
       orientation="0,1"
       position="1488.189,1031.1024"
       id="guide95492" />
  </sodipodi:namedview>
  <metadata
     id="metadata7">
    <rdf:RDF>
      <cc:Work
         rdf:about="">
        <dc:format>image/svg+xml</dc:format>
        <dc:type
           rdf:resource="http://purl.org/dc/dcmitype/StillImage" />
        <dc:title></dc:title>
      </cc:Work>
    </rdf:RDF>
  </metadata>
  <g
     inkscape:label="Layer 1"
     inkscape:groupmode="layer"
     id="layer1"
     transform="translate(141.73228,-205.5119)"
     style="display:inline">
    <path
       style="fill:#808000;fill-opacity:1;stroke:#808000"
       d="m 1282.6928,223.13897 0,272.8125 -10.625,0 0,141.75 10.625,0 0,272.84375 237.4063,0.0312 0,-28.28125 177.1562,0 0,28.3125 272.8438,0.0312 0,-272.9375 10.625,0 0,-141.75 -10.625,0 0,-272.71875 -687.4063,-0.0937 z"
       id="rect2989"
       inkscape:connector-curvature="0"
       sodipodi:nodetypes="cccccccccccccccccc" />
    <path
       style="fill:#ffff00;fill-opacity:1;stroke:#ffff00"
       d="m 1484.6462,910.53579 0,10.09375 -212.5937,-0.0937 0,202.59376 10.625,0 0,283.4688 -10.625,0 0,201.9687 212.5937,0.094 0,10.5313 283.4688,0 0,-10.625 212.5937,0.094 0,-202.0625 -10.625,0 0,-283.4688 10.625,0 0,-201.96876 -212.5937,-0.125 0,-10.5 -283.4688,0 z"
       id="rect2989-5"
       inkscape:connector-curvature="0" />
    <path
       style="fill:#808000;fill-opacity:1;stroke:#808000"
       d="m 77.968824,212.51422 0,10.625 -201.968754,-0.0937 0,202.0625 -10.625,0 0,283.46875 10.625,0 0,201.875 202.000004,0.0937 -0.03125,10.625 283.468746,-0.0937 0,-10.625 201.96875,0.0937 0,-201.96875 10.625,0 0,-283.46875 -10.625,0 0,-201.96875 -201.96875,-0.0937 0,-10.53125 z m 0,708.65625 z m 272.843746,-425.1875 10.625,0 0,141.71875 -10.625,0 z"
       id="rect3044-3"
       inkscape:connector-curvature="0"
       sodipodi:nodetypes="cccccccccccccccccccccccccccc" />
    <path
       style="fill:#ffff00;fill-opacity:1;stroke:#ffff00"
       d="m 775.99982,212.51889 0,10.09375 -212.59375,-0.0937 0,202.59375 10.625,0 0,283.46875 -10.625,0 0,201.96875 212.59375,0.0937 0,10.53125 283.46868,0 0,-10.625 212.5938,0.0937 0,-202.0625 -10.625,0 0,-283.46875 10.625,0 0,-201.96875 -212.5938,-0.125 0,-10.5 -283.46868,0 z"
       id="rect2989-5-8"
       inkscape:connector-curvature="0" />
    <path
       style="fill:#808000;fill-opacity:1;stroke:#808000"
       d="m 563.39623,910.53574 0,212.59376 10.625,0 0,283.4688 -10.625,0 0,212.5937 212.59375,0 0,-10.625 283.46882,0 0,10.625 212.5937,0 0,-212.5937 -10.625,0 0,-283.4688 10.625,0 0,-212.59376 -212.5937,0 0,10.625 -283.46882,0 0,-10.625 -212.59375,0 z"
       id="rect2989-5-8-0"
       inkscape:connector-curvature="0" />
    <path
       style="fill:#008000;fill-opacity:1;stroke:#008000"
       d="m -921.25462,201.96848 0,212.59375 10.625,0 0,283.4688 -10.625,0 0,212.5937 212.5937,0 0,-10.625 283.46875,0 0,10.625 212.59375,0 0,-212.5937 -10.625,0 0,-283.4688 10.625,0 0,-212.59375 -212.59375,0 0,10.625 -283.46875,0 0,-10.625 -212.5937,0 z m 70.875,70.25 400.37495,0 0,566.93755 -400.37495,0 0,-566.93755 z"
       id="rect2989-5-8-0-8"
       inkscape:connector-curvature="0" />
    <path
       style="fill:#ffff00;fill-opacity:1;stroke:#ffff00"
       d="m 77.968716,910.5496 0,10.625 -201.968696,-0.0937 0,202.0626 -10.625,0 0,283.4687 10.625,0 0,201.875 201.968696,0.094 0,10.625 283.468804,-0.094 0,-10.625 201.9688,0.094 0,-201.9688 10.625,0 0,-283.4687 -10.625,0 0,-201.96885 -201.9688,-0.0937 0,-10.53125 -283.468804,0 z m 0,708.6563 z m 0,-425.1875 10.625,0 0,141.7187 -10.625,0 z"
       id="rect3044-3-1"
       inkscape:connector-curvature="0"
       sodipodi:nodetypes="ccccccccccccccccccccccccccccc" />
  </g>
  <g
     inkscape:groupmode="layer"
     id="layer2"
     inkscape:label="Labels"
     style="display:none"
     transform="translate(0,-251.57491)">
    <flowRoot
       xml:space="preserve"
       id="flowRoot3065"
       style="font-size:144px;font-style:normal;font-weight:normal;line-height:125%;letter-spacing:0px;word-spacing:0px;fill:#ff0000;fill-opacity:1;stroke:none;font-family:Sans"
       transform="translate(-106.29927,215.51561)"><flowRegion
         id="flowRegion3067"><rect
           id="rect3069"
           width="479.38934"
           height="275.12778"
           x="291.80222"
           y="960.23523"
           style="font-size:144px;fill:#ff0000" /></flowRegion><flowPara
         id="flowPara3071">front</flowPara></flowRoot>    <flowRoot
       transform="translate(-150.08027,-1317.0065)"
       xml:space="preserve"
       id="flowRoot3065-6"
       style="font-size:144px;font-style:normal;font-weight:normal;line-height:125%;letter-spacing:0px;word-spacing:0px;fill:#ff0000;fill-opacity:1;stroke:none;font-family:Sans"><flowRegion
         id="flowRegion3067-6"><rect
           id="rect3069-2"
           width="479.38934"
           height="275.12778"
           x="291.80222"
           y="960.23523"
           style="font-size:144px;fill:#ff0000" /></flowRegion><flowPara
         id="flowPara3071-5">back</flowPara></flowRoot>    <flowRoot
       transform="translate(-1133.8584,-1417.9491)"
       xml:space="preserve"
       id="flowRoot3065-9"
       style="font-size:144px;font-style:normal;font-weight:normal;line-height:125%;letter-spacing:0px;word-spacing:0px;fill:#ff0000;fill-opacity:1;stroke:none;font-family:Sans"><flowRegion
         id="flowRegion3067-2"><rect
           id="rect3069-9"
           width="479.38934"
           height="275.12778"
           x="291.80222"
           y="960.23523"
           style="font-size:144px;fill:#ff0000" /></flowRegion><flowPara
         id="flowPara3071-2">tofrontbbbw</flowPara></flowRoot>    <flowRoot
       transform="translate(-1461.1053,-497.87643)"
       xml:space="preserve"
       id="flowRoot3065-2"
       style="font-size:144px;font-style:normal;font-weight:normal;line-height:125%;letter-spacing:0px;word-spacing:0px;fill:#ff0000;fill-opacity:1;stroke:none;font-family:Sans"
       inkscape:transform-center-x="-817.45962"
       inkscape:transform-center-y="306.00376"><flowRegion
         id="flowRegion3067-7"><rect
           id="rect3069-3"
           width="479.38934"
           height="275.12778"
           x="291.80222"
           y="960.23523"
           style="font-size:144px;fill:#ff0000" /></flowRegion><flowPara
         id="flowPara3071-3">base</flowPara></flowRoot>    <flowRoot
       transform="translate(-823.30862,-462.44324)"
       xml:space="preserve"
       id="flowRoot3065-69"
       style="font-size:144px;font-style:normal;font-weight:normal;line-height:125%;letter-spacing:0px;word-spacing:0px;fill:#ff0000;fill-opacity:1;stroke:none;font-family:Sans"
       inkscape:transform-center-x="599.86324"><flowRegion
         id="flowRegion3067-5"><rect
           id="rect3069-4"
           width="479.38934"
           height="275.12778"
           x="291.80222"
           y="960.23523"
           style="font-size:144px;fill:#ff0000" /></flowRegion><flowPara
         id="flowPara3071-50">left</flowPara></flowRoot>    <flowRoot
       transform="translate(-220.94071,-462.44329)"
       xml:space="preserve"
       id="flowRoot3065-67"
       style="font-size:144px;font-style:normal;font-weight:normal;line-height:125%;letter-spacing:0px;word-spacing:0px;fill:#ff0000;fill-opacity:1;stroke:none;font-family:Sans"><flowRegion
         id="flowRegion3067-3"><rect
           id="rect3069-7"
           width="479.38934"
           height="275.12778"
           x="291.80222"
           y="960.23523"
           style="font-size:144px;fill:#ff0000" /></flowRegion><flowPara
         id="flowPara3071-55">top</flowPara></flowRoot>    <flowRoot
       transform="translate(629.44729,-568.85562)"
       xml:space="preserve"
       id="flowRoot3065-7"
       style="font-size:144px;font-style:normal;font-weight:normal;line-height:125%;letter-spacing:0px;word-spacing:0px;fill:#ff0000;fill-opacity:1;stroke:none;font-family:Sans"><flowRegion
         id="flowRegion3067-1"><rect
           id="rect3069-33"
           width="602.3725"
           height="462.44427"
           x="291.80222"
           y="960.23523"
           style="font-size:144px;fill:#ff0000" /></flowRegion><flowPara
         id="flowPara3071-0">right</flowPara></flowRoot>    <flowRoot
       transform="translate(1373.5474,-497.98949)"
       xml:space="preserve"
       id="flowRoot3065-3"
       style="font-size:144px;font-style:normal;font-weight:normal;line-height:125%;letter-spacing:0px;word-spacing:0px;fill:#ff0000;fill-opacity:1;stroke:none;font-family:Sans"><flowRegion
         id="flowRegion3067-28"><rect
           id="rect3069-1"
           width="566.93945"
           height="285.27893"
           x="291.80222"
           y="960.23523"
           style="font-size:144px;fill:#ff0000" /></flowRegion><flowPara
         id="flowPara3071-6">divider</flowPara></flowRoot>  </g>
</svg>
