999
DXF created by Inkscape
  0
SECTION
  2
HEADER
  9
$ACADVER
  1
AC1014
  9
$HANDSEED
  5
FFFF
  9
$MEASUREMENT
 70
     1
  0
ENDSEC
  0
SECTION
  2
TABLES
  0
TABLE
  2
VPORT
  5
8
330
0
100
AcDbSymbolTable
 70
     4
  0
VPORT
  5
2E
330
8
100
AcDbSymbolTableRecord
100
AcDbViewportTableRecord
  2
*ACTIVE
 70
     0
 10
0.0
 20
0.0
 11
1.0
 21
1.0
 12
210.0
 22
148.5
 13
0.0
 23
0.0
 14
10.0
 24
10.0
 15
10.0
 25
10.0
 16
0.0
 26
0.0
 36
1.0
 17
0.0
 27
0.0
 37
0.0
 40
341.0
 41
1.24
 42
50.0
 43
0.0
 44
0.0
 50
0.0
 51
0.0
 71
     0
 72
   100
 73
     1
 74
     3
 75
     0
 76
     0
 77
     0
 78
     0
  0
ENDTAB
  0
TABLE
  2
LTYPE
  5
5
330
0
100
AcDbSymbolTable
 70
     1
  0
LTYPE
  5
14
330
5
100
AcDbSymbolTableRecord
100
AcDbLinetypeTableRecord
  2
BYBLOCK
 70
     0
  3

 72
    65
 73
     0
 40
0.0
  0
LTYPE
  5
15
330
5
100
AcDbSymbolTableRecord
100
AcDbLinetypeTableRecord
  2
BYLAYER
 70
     0
  3

 72
    65
 73
     0
 40
0.0
  0
LTYPE
  5
16
330
5
100
AcDbSymbolTableRecord
100
AcDbLinetypeTableRecord
  2
CONTINUOUS
 70
     0
  3
Solid line
 72
    65
 73
     0
 40
0.0
  0
ENDTAB
  0
TABLE
  2
LAYER
  5
2
100
AcDbSymbolTable
 70
3
  0
LAYER
  5
50
100
AcDbSymbolTableRecord
100
AcDbLayerTableRecord
  2
0
 70
0
  6
CONTINUOUS
  0
LAYER
  5
51
100
AcDbSymbolTableRecord
100
AcDbLayerTableRecord
  2
Layer_1
 70
0
  6
CONTINUOUS
  0
LAYER
  5
52
100
AcDbSymbolTableRecord
100
AcDbLayerTableRecord
  2
Labels
 70
0
  6
CONTINUOUS
  0
ENDTAB
  0
TABLE
  2
STYLE
  5
3
330
0
100
AcDbSymbolTable
 70
     1
  0
STYLE
  5
11
330
3
100
AcDbSymbolTableRecord
100
AcDbTextStyleTableRecord
  2
STANDARD
 70
     0
 40
0.0
 41
1.0
 50
0.0
 71
     0
 42
2.5
  3
txt
  4

  0
ENDTAB
  0
TABLE
  2
VIEW
  5
6
330
0
100
AcDbSymbolTable
 70
     0
  0
ENDTAB
  0
TABLE
  2
UCS
  5
7
330
0
100
AcDbSymbolTable
 70
     0
  0
ENDTAB
  0
TABLE
  2
APPID
  5
9
330
0
100
AcDbSymbolTable
 70
     2
  0
APPID
  5
12
330
9
100
AcDbSymbolTableRecord
100
AcDbRegAppTableRecord
  2
ACAD
 70
     0
  0
ENDTAB
  0
TABLE
  2
DIMSTYLE
  5
A
330
0
100
AcDbSymbolTable
 70
     1
  0
DIMSTYLE
105
27
330
A
100
AcDbSymbolTableRecord
100
AcDbDimStyleTableRecord
  2
ISO-25
 70
     0
  3

  4

  5

  6

  7

 40
1.0
 41
2.5
 42
0.625
 43
3.75
 44
1.25
 45
0.0
 46
0.0
 47
0.0
 48
0.0
140
2.5
141
2.5
142
0.0
143
0.03937007874016
144
1.0
145
0.0
146
1.0
147
0.625
 71
     0
 72
     0
 73
     0
 74
     0
 75
     0
 76
     0
 77
     1
 78
     8
170
     0
171
     3
172
     1
173
     0
174
     0
175
     0
176
     0
177
     0
178
     0
270
     2
271
     2
272
     2
273
     2
274
     3
340
11
275
     0
280
     0
281
     0
282
     0
283
     0
284
     8
285
     0
286
     0
287
     3
288
     0
  0
ENDTAB
  0
TABLE
  2
BLOCK_RECORD
  5
1
330
0
100
AcDbSymbolTable
 70
     1
  0
BLOCK_RECORD
  5
1F
330
1
100
AcDbSymbolTableRecord
100
AcDbBlockTableRecord
  2
*MODEL_SPACE
  0
BLOCK_RECORD
  5
1B
330
1
100
AcDbSymbolTableRecord
100
AcDbBlockTableRecord
  2
*PAPER_SPACE
  0
ENDTAB
  0
ENDSEC
  0
SECTION
  2
BLOCKS
  0
BLOCK
  5
20
330
1F
100
AcDbEntity
  8
0
100
AcDbBlockBegin
  2
*MODEL_SPACE
 70
     0
 10
0.0
 20
0.0
 30
0.0
  3
*MODEL_SPACE
  1

  0
ENDBLK
  5
21
330
1F
100
AcDbEntity
  8
0
100
AcDbBlockEnd
  0
BLOCK
  5
1C
330
1B
100
AcDbEntity
 67
     1
  8
0
100
AcDbBlockBegin
  2
*PAPER_SPACE
  1

  0
ENDBLK
  5
1D
330
1B
100
AcDbEntity
 67
     1
  8
0
100
AcDbBlockEnd
  0
ENDSEC
  0
SECTION
  2
ENTITIES
  0
LINE
  5
100
100
AcDbEntity
  8
Layer_1
 62
2
100
AcDbLine
 10
402.004411
 20
395.025239
 30
0.0
 11
402.004411
 21
318.031489
 31
0.0
  0
LINE
  5
101
100
AcDbEntity
  8
Layer_1
 62
2
100
AcDbLine
 10
402.004411
 20
318.031489
 30
0.0
 11
399.005800
 21
318.031489
 31
0.0
  0
LINE
  5
102
100
AcDbEntity
  8
Layer_1
 62
2
100
AcDbLine
 10
399.005800
 20
318.031489
 30
0.0
 11
399.005800
 21
278.026489
 31
0.0
  0
LINE
  5
103
100
AcDbEntity
  8
Layer_1
 62
2
100
AcDbLine
 10
399.005800
 20
278.026489
 30
0.0
 11
402.004411
 21
278.026489
 31
0.0
  0
LINE
  5
104
100
AcDbEntity
  8
Layer_1
 62
2
100
AcDbLine
 10
402.004411
 20
278.026489
 30
0.0
 11
402.004411
 21
201.023920
 31
0.0
  0
LINE
  5
105
100
AcDbEntity
  8
Layer_1
 62
2
100
AcDbLine
 10
402.004411
 20
201.023920
 30
0.0
 11
469.005745
 21
201.015115
 31
0.0
  0
LINE
  5
106
100
AcDbEntity
  8
Layer_1
 62
2
100
AcDbLine
 10
469.005745
 20
201.015115
 30
0.0
 11
469.005745
 21
208.996712
 31
0.0
  0
LINE
  5
107
100
AcDbEntity
  8
Layer_1
 62
2
100
AcDbLine
 10
469.005745
 20
208.996712
 30
0.0
 11
519.003161
 21
208.996712
 31
0.0
  0
LINE
  5
108
100
AcDbEntity
  8
Layer_1
 62
2
100
AcDbLine
 10
519.003161
 20
208.996712
 30
0.0
 11
519.003161
 21
201.006295
 31
0.0
  0
LINE
  5
109
100
AcDbEntity
  8
Layer_1
 62
2
100
AcDbLine
 10
519.003161
 20
201.006295
 30
0.0
 11
596.005745
 21
200.997490
 31
0.0
  0
LINE
  5
10a
100
AcDbEntity
  8
Layer_1
 62
2
100
AcDbLine
 10
596.005745
 20
200.997490
 30
0.0
 11
596.005745
 21
278.026518
 31
0.0
  0
LINE
  5
10b
100
AcDbEntity
  8
Layer_1
 62
2
100
AcDbLine
 10
596.005745
 20
278.026518
 30
0.0
 11
599.004356
 21
278.026518
 31
0.0
  0
LINE
  5
10c
100
AcDbEntity
  8
Layer_1
 62
2
100
AcDbLine
 10
599.004356
 20
278.026518
 30
0.0
 11
599.004356
 21
318.031518
 31
0.0
  0
LINE
  5
10d
100
AcDbEntity
  8
Layer_1
 62
2
100
AcDbLine
 10
599.004356
 20
318.031518
 30
0.0
 11
596.005745
 21
318.031518
 31
0.0
  0
LINE
  5
10e
100
AcDbEntity
  8
Layer_1
 62
2
100
AcDbLine
 10
596.005745
 20
318.031518
 30
0.0
 11
596.005745
 21
394.998809
 31
0.0
  0
LINE
  5
10f
100
AcDbEntity
  8
Layer_1
 62
2
100
AcDbLine
 10
596.005745
 20
394.998809
 30
0.0
 11
402.004411
 21
395.025253
 31
0.0
  0
LINE
  5
110
100
AcDbEntity
  8
Layer_1
 62
2
100
AcDbLine
 10
402.004411
 20
395.025253
 30
0.0
 11
402.004411
 21
395.025239
 31
0.0
  0
LINE
  5
111
100
AcDbEntity
  8
Layer_1
 62
2
100
AcDbLine
 10
459.000149
 20
201.026581
 30
0.0
 11
459.000149
 21
198.177901
 31
0.0
  0
LINE
  5
112
100
AcDbEntity
  8
Layer_1
 62
2
100
AcDbLine
 10
459.000149
 20
198.177901
 30
0.0
 11
399.001482
 21
198.204345
 31
0.0
  0
LINE
  5
113
100
AcDbEntity
  8
Layer_1
 62
2
100
AcDbLine
 10
399.001482
 20
198.204345
 30
0.0
 11
399.001482
 21
141.027884
 31
0.0
  0
LINE
  5
114
100
AcDbEntity
  8
Layer_1
 62
2
100
AcDbLine
 10
399.001482
 20
141.027884
 30
0.0
 11
402.000093
 21
141.027884
 31
0.0
  0
LINE
  5
115
100
AcDbEntity
  8
Layer_1
 62
2
100
AcDbLine
 10
402.000093
 20
141.027884
 30
0.0
 11
402.000093
 21
61.026689
 31
0.0
  0
LINE
  5
116
100
AcDbEntity
  8
Layer_1
 62
2
100
AcDbLine
 10
402.000093
 20
61.026689
 30
0.0
 11
399.001482
 21
61.026689
 31
0.0
  0
LINE
  5
117
100
AcDbEntity
  8
Layer_1
 62
2
100
AcDbLine
 10
399.001482
 20
61.026689
 30
0.0
 11
399.001482
 21
4.026634
 31
0.0
  0
LINE
  5
118
100
AcDbEntity
  8
Layer_1
 62
2
100
AcDbLine
 10
399.001482
 20
4.026634
 30
0.0
 11
459.000149
 21
4.000105
 31
0.0
  0
LINE
  5
119
100
AcDbEntity
  8
Layer_1
 62
2
100
AcDbLine
 10
459.000149
 20
4.000105
 30
0.0
 11
459.000149
 21
1.027938
 31
0.0
  0
LINE
  5
11a
100
AcDbEntity
  8
Layer_1
 62
2
100
AcDbLine
 10
459.000149
 20
1.027938
 30
0.0
 11
539.001343
 21
1.027938
 31
0.0
  0
LINE
  5
11b
100
AcDbEntity
  8
Layer_1
 62
2
100
AcDbLine
 10
539.001343
 20
1.027938
 30
0.0
 11
539.001343
 21
4.026549
 31
0.0
  0
LINE
  5
11c
100
AcDbEntity
  8
Layer_1
 62
2
100
AcDbLine
 10
539.001343
 20
4.026549
 30
0.0
 11
599.000010
 21
4.000020
 31
0.0
  0
LINE
  5
11d
100
AcDbEntity
  8
Layer_1
 62
2
100
AcDbLine
 10
599.000010
 20
4.000020
 30
0.0
 11
599.000010
 21
61.026548
 31
0.0
  0
LINE
  5
11e
100
AcDbEntity
  8
Layer_1
 62
2
100
AcDbLine
 10
599.000010
 20
61.026548
 30
0.0
 11
596.001399
 21
61.026548
 31
0.0
  0
LINE
  5
11f
100
AcDbEntity
  8
Layer_1
 62
2
100
AcDbLine
 10
596.001399
 20
61.026548
 30
0.0
 11
596.001399
 21
141.027743
 31
0.0
  0
LINE
  5
120
100
AcDbEntity
  8
Layer_1
 62
2
100
AcDbLine
 10
596.001399
 20
141.027743
 30
0.0
 11
599.000010
 21
141.027743
 31
0.0
  0
LINE
  5
121
100
AcDbEntity
  8
Layer_1
 62
2
100
AcDbLine
 10
599.000010
 20
141.027743
 30
0.0
 11
599.000010
 21
198.027815
 31
0.0
  0
LINE
  5
122
100
AcDbEntity
  8
Layer_1
 62
2
100
AcDbLine
 10
599.000010
 20
198.027815
 30
0.0
 11
539.001343
 21
198.063093
 31
0.0
  0
LINE
  5
123
100
AcDbEntity
  8
Layer_1
 62
2
100
AcDbLine
 10
539.001343
 20
198.063093
 30
0.0
 11
539.001343
 21
201.026426
 31
0.0
  0
LINE
  5
124
100
AcDbEntity
  8
Layer_1
 62
2
100
AcDbLine
 10
539.001343
 20
201.026426
 30
0.0
 11
459.000149
 21
201.026426
 31
0.0
  0
LINE
  5
125
100
AcDbEntity
  8
Layer_1
 62
2
100
AcDbLine
 10
459.000149
 20
201.026426
 30
0.0
 11
459.000149
 21
201.026581
 31
0.0
  0
LINE
  5
126
100
AcDbEntity
  8
Layer_1
 62
2
100
AcDbLine
 10
62.004534
 20
398.023780
 30
0.0
 11
62.004534
 21
395.025169
 31
0.0
  0
LINE
  5
127
100
AcDbEntity
  8
Layer_1
 62
2
100
AcDbLine
 10
62.004534
 20
395.025169
 30
0.0
 11
5.004463
 21
395.051613
 31
0.0
  0
LINE
  5
128
100
AcDbEntity
  8
Layer_1
 62
2
100
AcDbLine
 10
5.004463
 20
395.051613
 30
0.0
 11
5.004463
 21
338.025085
 31
0.0
  0
LINE
  5
129
100
AcDbEntity
  8
Layer_1
 62
2
100
AcDbLine
 10
5.004463
 20
338.025085
 30
0.0
 11
2.005852
 21
338.025085
 31
0.0
  0
LINE
  5
12a
100
AcDbEntity
  8
Layer_1
 62
2
100
AcDbLine
 10
2.005852
 20
338.025085
 30
0.0
 11
2.005852
 21
258.023905
 31
0.0
  0
LINE
  5
12b
100
AcDbEntity
  8
Layer_1
 62
2
100
AcDbLine
 10
2.005852
 20
258.023905
 30
0.0
 11
5.004463
 21
258.023905
 31
0.0
  0
LINE
  5
12c
100
AcDbEntity
  8
Layer_1
 62
2
100
AcDbLine
 10
5.004463
 20
258.023905
 30
0.0
 11
5.004463
 21
201.050294
 31
0.0
  0
LINE
  5
12d
100
AcDbEntity
  8
Layer_1
 62
2
100
AcDbLine
 10
5.004463
 20
201.050294
 30
0.0
 11
62.013353
 21
201.023849
 31
0.0
  0
LINE
  5
12e
100
AcDbEntity
  8
Layer_1
 62
2
100
AcDbLine
 10
62.013353
 20
201.023849
 30
0.0
 11
62.004534
 21
198.025238
 31
0.0
  0
LINE
  5
12f
100
AcDbEntity
  8
Layer_1
 62
2
100
AcDbLine
 10
62.004534
 20
198.025238
 30
0.0
 11
142.005713
 21
198.051682
 31
0.0
  0
LINE
  5
130
100
AcDbEntity
  8
Layer_1
 62
2
100
AcDbLine
 10
142.005713
 20
198.051682
 30
0.0
 11
142.005713
 21
201.050294
 31
0.0
  0
LINE
  5
131
100
AcDbEntity
  8
Layer_1
 62
2
100
AcDbLine
 10
142.005713
 20
201.050294
 30
0.0
 11
199.005783
 21
201.023849
 31
0.0
  0
LINE
  5
132
100
AcDbEntity
  8
Layer_1
 62
2
100
AcDbLine
 10
199.005783
 20
201.023849
 30
0.0
 11
199.005783
 21
258.023919
 31
0.0
  0
LINE
  5
133
100
AcDbEntity
  8
Layer_1
 62
2
100
AcDbLine
 10
199.005783
 20
258.023919
 30
0.0
 11
202.004394
 21
258.023919
 31
0.0
  0
LINE
  5
134
100
AcDbEntity
  8
Layer_1
 62
2
100
AcDbLine
 10
202.004394
 20
258.023919
 30
0.0
 11
202.004394
 21
338.025099
 31
0.0
  0
LINE
  5
135
100
AcDbEntity
  8
Layer_1
 62
2
100
AcDbLine
 10
202.004394
 20
338.025099
 30
0.0
 11
199.005783
 21
338.025099
 31
0.0
  0
LINE
  5
136
100
AcDbEntity
  8
Layer_1
 62
2
100
AcDbLine
 10
199.005783
 20
338.025099
 30
0.0
 11
199.005783
 21
395.025169
 31
0.0
  0
LINE
  5
137
100
AcDbEntity
  8
Layer_1
 62
2
100
AcDbLine
 10
199.005783
 20
395.025169
 30
0.0
 11
142.005713
 21
395.051613
 31
0.0
  0
LINE
  5
138
100
AcDbEntity
  8
Layer_1
 62
2
100
AcDbLine
 10
142.005713
 20
395.051613
 30
0.0
 11
142.005713
 21
398.023766
 31
0.0
  0
LINE
  5
139
100
AcDbEntity
  8
Layer_1
 62
2
100
AcDbLine
 10
142.005713
 20
398.023766
 30
0.0
 11
62.004534
 21
398.023780
 31
0.0
  0
LINE
  5
13a
100
AcDbEntity
  8
Layer_1
 62
2
100
AcDbLine
 10
62.004534
 20
198.025238
 30
0.0
 11
62.004534
 21
198.025238
 31
0.0
  0
LINE
  5
13b
100
AcDbEntity
  8
Layer_1
 62
2
100
AcDbLine
 10
139.007102
 20
318.022599
 30
0.0
 11
142.005713
 21
318.022599
 31
0.0
  0
LINE
  5
13c
100
AcDbEntity
  8
Layer_1
 62
2
100
AcDbLine
 10
142.005713
 20
318.022599
 30
0.0
 11
142.005713
 21
278.026419
 31
0.0
  0
LINE
  5
13d
100
AcDbEntity
  8
Layer_1
 62
2
100
AcDbLine
 10
142.005713
 20
278.026419
 30
0.0
 11
139.007102
 21
278.026419
 31
0.0
  0
LINE
  5
13e
100
AcDbEntity
  8
Layer_1
 62
2
100
AcDbLine
 10
139.007102
 20
278.026419
 30
0.0
 11
139.007102
 21
318.022599
 31
0.0
  0
LINE
  5
13f
100
AcDbEntity
  8
Layer_1
 62
2
100
AcDbLine
 10
259.004393
 20
398.022462
 30
0.0
 11
259.004393
 21
395.173781
 31
0.0
  0
LINE
  5
140
100
AcDbEntity
  8
Layer_1
 62
2
100
AcDbLine
 10
259.004393
 20
395.173781
 30
0.0
 11
199.005712
 21
395.200226
 31
0.0
  0
LINE
  5
141
100
AcDbEntity
  8
Layer_1
 62
2
100
AcDbLine
 10
199.005712
 20
395.200226
 30
0.0
 11
199.005712
 21
338.023767
 31
0.0
  0
LINE
  5
142
100
AcDbEntity
  8
Layer_1
 62
2
100
AcDbLine
 10
199.005712
 20
338.023767
 30
0.0
 11
202.004323
 21
338.023767
 31
0.0
  0
LINE
  5
143
100
AcDbEntity
  8
Layer_1
 62
2
100
AcDbLine
 10
202.004323
 20
338.023767
 30
0.0
 11
202.004323
 21
258.022587
 31
0.0
  0
LINE
  5
144
100
AcDbEntity
  8
Layer_1
 62
2
100
AcDbLine
 10
202.004323
 20
258.022587
 30
0.0
 11
199.005712
 21
258.022587
 31
0.0
  0
LINE
  5
145
100
AcDbEntity
  8
Layer_1
 62
2
100
AcDbLine
 10
199.005712
 20
258.022587
 30
0.0
 11
199.005712
 21
201.022517
 31
0.0
  0
LINE
  5
146
100
AcDbEntity
  8
Layer_1
 62
2
100
AcDbLine
 10
199.005712
 20
201.022517
 30
0.0
 11
259.004393
 21
200.996073
 31
0.0
  0
LINE
  5
147
100
AcDbEntity
  8
Layer_1
 62
2
100
AcDbLine
 10
259.004393
 20
200.996073
 30
0.0
 11
259.004393
 21
198.023920
 31
0.0
  0
LINE
  5
148
100
AcDbEntity
  8
Layer_1
 62
2
100
AcDbLine
 10
259.004393
 20
198.023920
 30
0.0
 11
339.005553
 21
198.023920
 31
0.0
  0
LINE
  5
149
100
AcDbEntity
  8
Layer_1
 62
2
100
AcDbLine
 10
339.005553
 20
198.023920
 30
0.0
 11
339.005553
 21
201.022531
 31
0.0
  0
LINE
  5
14a
100
AcDbEntity
  8
Layer_1
 62
2
100
AcDbLine
 10
339.005553
 20
201.022531
 30
0.0
 11
399.004248
 21
200.996087
 31
0.0
  0
LINE
  5
14b
100
AcDbEntity
  8
Layer_1
 62
2
100
AcDbLine
 10
399.004248
 20
200.996087
 30
0.0
 11
399.004248
 21
258.022615
 31
0.0
  0
LINE
  5
14c
100
AcDbEntity
  8
Layer_1
 62
2
100
AcDbLine
 10
399.004248
 20
258.022615
 30
0.0
 11
396.005637
 21
258.022615
 31
0.0
  0
LINE
  5
14d
100
AcDbEntity
  8
Layer_1
 62
2
100
AcDbLine
 10
396.005637
 20
258.022615
 30
0.0
 11
396.005637
 21
338.023795
 31
0.0
  0
LINE
  5
14e
100
AcDbEntity
  8
Layer_1
 62
2
100
AcDbLine
 10
396.005637
 20
338.023795
 30
0.0
 11
399.004248
 21
338.023795
 31
0.0
  0
LINE
  5
14f
100
AcDbEntity
  8
Layer_1
 62
2
100
AcDbLine
 10
399.004248
 20
338.023795
 30
0.0
 11
399.004248
 21
395.023865
 31
0.0
  0
LINE
  5
150
100
AcDbEntity
  8
Layer_1
 62
2
100
AcDbLine
 10
399.004248
 20
395.023865
 30
0.0
 11
339.005553
 21
395.059143
 31
0.0
  0
LINE
  5
151
100
AcDbEntity
  8
Layer_1
 62
2
100
AcDbLine
 10
339.005553
 20
395.059143
 30
0.0
 11
339.005553
 21
398.022476
 31
0.0
  0
LINE
  5
152
100
AcDbEntity
  8
Layer_1
 62
2
100
AcDbLine
 10
339.005553
 20
398.022476
 30
0.0
 11
259.004393
 21
398.022476
 31
0.0
  0
LINE
  5
153
100
AcDbEntity
  8
Layer_1
 62
2
100
AcDbLine
 10
259.004393
 20
398.022476
 30
0.0
 11
259.004393
 21
398.022462
 31
0.0
  0
LINE
  5
154
100
AcDbEntity
  8
Layer_1
 62
2
100
AcDbLine
 10
199.002935
 20
201.026595
 30
0.0
 11
199.002935
 21
141.027912
 31
0.0
  0
LINE
  5
155
100
AcDbEntity
  8
Layer_1
 62
2
100
AcDbLine
 10
199.002935
 20
141.027912
 30
0.0
 11
202.001546
 21
141.027912
 31
0.0
  0
LINE
  5
156
100
AcDbEntity
  8
Layer_1
 62
2
100
AcDbLine
 10
202.001546
 20
141.027912
 30
0.0
 11
202.001546
 21
61.026717
 31
0.0
  0
LINE
  5
157
100
AcDbEntity
  8
Layer_1
 62
2
100
AcDbLine
 10
202.001546
 20
61.026717
 30
0.0
 11
199.002935
 21
61.026717
 31
0.0
  0
LINE
  5
158
100
AcDbEntity
  8
Layer_1
 62
2
100
AcDbLine
 10
199.002935
 20
61.026717
 30
0.0
 11
199.002935
 21
1.028051
 31
0.0
  0
LINE
  5
159
100
AcDbEntity
  8
Layer_1
 62
2
100
AcDbLine
 10
199.002935
 20
1.028051
 30
0.0
 11
259.001616
 21
1.028051
 31
0.0
  0
LINE
  5
15a
100
AcDbEntity
  8
Layer_1
 62
2
100
AcDbLine
 10
259.001616
 20
1.028051
 30
0.0
 11
259.001616
 21
4.026662
 31
0.0
  0
LINE
  5
15b
100
AcDbEntity
  8
Layer_1
 62
2
100
AcDbLine
 10
259.001616
 20
4.026662
 30
0.0
 11
339.002816
 21
4.026662
 31
0.0
  0
LINE
  5
15c
100
AcDbEntity
  8
Layer_1
 62
2
100
AcDbLine
 10
339.002816
 20
4.026662
 30
0.0
 11
339.002816
 21
1.028051
 31
0.0
  0
LINE
  5
15d
100
AcDbEntity
  8
Layer_1
 62
2
100
AcDbLine
 10
339.002816
 20
1.028051
 30
0.0
 11
399.001482
 21
1.028051
 31
0.0
  0
LINE
  5
15e
100
AcDbEntity
  8
Layer_1
 62
2
100
AcDbLine
 10
399.001482
 20
1.028051
 30
0.0
 11
399.001482
 21
61.026717
 31
0.0
  0
LINE
  5
15f
100
AcDbEntity
  8
Layer_1
 62
2
100
AcDbLine
 10
399.001482
 20
61.026717
 30
0.0
 11
396.002871
 21
61.026717
 31
0.0
  0
LINE
  5
160
100
AcDbEntity
  8
Layer_1
 62
2
100
AcDbLine
 10
396.002871
 20
61.026717
 30
0.0
 11
396.002871
 21
141.027912
 31
0.0
  0
LINE
  5
161
100
AcDbEntity
  8
Layer_1
 62
2
100
AcDbLine
 10
396.002871
 20
141.027912
 30
0.0
 11
399.001482
 21
141.027912
 31
0.0
  0
LINE
  5
162
100
AcDbEntity
  8
Layer_1
 62
2
100
AcDbLine
 10
399.001482
 20
141.027912
 30
0.0
 11
399.001482
 21
201.026595
 31
0.0
  0
LINE
  5
163
100
AcDbEntity
  8
Layer_1
 62
2
100
AcDbLine
 10
399.001482
 20
201.026595
 30
0.0
 11
339.002816
 21
201.026595
 31
0.0
  0
LINE
  5
164
100
AcDbEntity
  8
Layer_1
 62
2
100
AcDbLine
 10
339.002816
 20
201.026595
 30
0.0
 11
339.002816
 21
198.027984
 31
0.0
  0
LINE
  5
165
100
AcDbEntity
  8
Layer_1
 62
2
100
AcDbLine
 10
339.002816
 20
198.027984
 30
0.0
 11
259.001616
 21
198.027984
 31
0.0
  0
LINE
  5
166
100
AcDbEntity
  8
Layer_1
 62
2
100
AcDbLine
 10
259.001616
 20
198.027984
 30
0.0
 11
259.001616
 21
201.026595
 31
0.0
  0
LINE
  5
167
100
AcDbEntity
  8
Layer_1
 62
2
100
AcDbLine
 10
259.001616
 20
201.026595
 30
0.0
 11
199.002935
 21
201.026595
 31
0.0
  0
LINE
  5
168
100
AcDbEntity
  8
Layer_1
 62
2
100
AcDbLine
 10
199.002935
 20
201.026595
 30
0.0
 11
199.002935
 21
201.026595
 31
0.0
  0
LINE
  5
169
100
AcDbEntity
  8
Layer_1
 62
3
100
AcDbLine
 10
-219.998527
 20
401.000022
 30
0.0
 11
-219.998527
 21
341.001342
 31
0.0
  0
LINE
  5
16a
100
AcDbEntity
  8
Layer_1
 62
3
100
AcDbLine
 10
-219.998527
 20
341.001342
 30
0.0
 11
-216.999916
 21
341.001342
 31
0.0
  0
LINE
  5
16b
100
AcDbEntity
  8
Layer_1
 62
3
100
AcDbLine
 10
-216.999916
 20
341.001342
 30
0.0
 11
-216.999916
 21
261.000147
 31
0.0
  0
LINE
  5
16c
100
AcDbEntity
  8
Layer_1
 62
3
100
AcDbLine
 10
-216.999916
 20
261.000147
 30
0.0
 11
-219.998527
 21
261.000147
 31
0.0
  0
LINE
  5
16d
100
AcDbEntity
  8
Layer_1
 62
3
100
AcDbLine
 10
-219.998527
 20
261.000147
 30
0.0
 11
-219.998527
 21
201.001480
 31
0.0
  0
LINE
  5
16e
100
AcDbEntity
  8
Layer_1
 62
3
100
AcDbLine
 10
-219.998527
 20
201.001480
 30
0.0
 11
-159.999861
 21
201.001480
 31
0.0
  0
LINE
  5
16f
100
AcDbEntity
  8
Layer_1
 62
3
100
AcDbLine
 10
-159.999861
 20
201.001480
 30
0.0
 11
-159.999861
 21
204.000092
 31
0.0
  0
LINE
  5
170
100
AcDbEntity
  8
Layer_1
 62
3
100
AcDbLine
 10
-159.999861
 20
204.000092
 30
0.0
 11
-79.998680
 21
204.000092
 31
0.0
  0
LINE
  5
171
100
AcDbEntity
  8
Layer_1
 62
3
100
AcDbLine
 10
-79.998680
 20
204.000092
 30
0.0
 11
-79.998680
 21
201.001480
 31
0.0
  0
LINE
  5
172
100
AcDbEntity
  8
Layer_1
 62
3
100
AcDbLine
 10
-79.998680
 20
201.001480
 30
0.0
 11
-20.000000
 21
201.001480
 31
0.0
  0
LINE
  5
173
100
AcDbEntity
  8
Layer_1
 62
3
100
AcDbLine
 10
-20.000000
 20
201.001480
 30
0.0
 11
-20.000000
 21
261.000147
 31
0.0
  0
LINE
  5
174
100
AcDbEntity
  8
Layer_1
 62
3
100
AcDbLine
 10
-20.000000
 20
261.000147
 30
0.0
 11
-22.998611
 21
261.000147
 31
0.0
  0
LINE
  5
175
100
AcDbEntity
  8
Layer_1
 62
3
100
AcDbLine
 10
-22.998611
 20
261.000147
 30
0.0
 11
-22.998611
 21
341.001342
 31
0.0
  0
LINE
  5
176
100
AcDbEntity
  8
Layer_1
 62
3
100
AcDbLine
 10
-22.998611
 20
341.001342
 30
0.0
 11
-20.000000
 21
341.001342
 31
0.0
  0
LINE
  5
177
100
AcDbEntity
  8
Layer_1
 62
3
100
AcDbLine
 10
-20.000000
 20
341.001342
 30
0.0
 11
-20.000000
 21
401.000022
 31
0.0
  0
LINE
  5
178
100
AcDbEntity
  8
Layer_1
 62
3
100
AcDbLine
 10
-20.000000
 20
401.000022
 30
0.0
 11
-79.998680
 21
401.000022
 31
0.0
  0
LINE
  5
179
100
AcDbEntity
  8
Layer_1
 62
3
100
AcDbLine
 10
-79.998680
 20
401.000022
 30
0.0
 11
-79.998680
 21
398.001411
 31
0.0
  0
LINE
  5
17a
100
AcDbEntity
  8
Layer_1
 62
3
100
AcDbLine
 10
-79.998680
 20
398.001411
 30
0.0
 11
-159.999861
 21
398.001411
 31
0.0
  0
LINE
  5
17b
100
AcDbEntity
  8
Layer_1
 62
3
100
AcDbLine
 10
-159.999861
 20
398.001411
 30
0.0
 11
-159.999861
 21
401.000022
 31
0.0
  0
LINE
  5
17c
100
AcDbEntity
  8
Layer_1
 62
3
100
AcDbLine
 10
-159.999861
 20
401.000022
 30
0.0
 11
-219.998527
 21
401.000022
 31
0.0
  0
LINE
  5
17d
100
AcDbEntity
  8
Layer_1
 62
3
100
AcDbLine
 10
-219.998527
 20
401.000022
 30
0.0
 11
-219.998527
 21
401.000022
 31
0.0
  0
LINE
  5
17e
100
AcDbEntity
  8
Layer_1
 62
3
100
AcDbLine
 10
-199.996027
 20
381.173911
 30
0.0
 11
-87.001319
 21
381.173911
 31
0.0
  0
LINE
  5
17f
100
AcDbEntity
  8
Layer_1
 62
3
100
AcDbLine
 10
-87.001319
 20
381.173911
 30
0.0
 11
-87.001319
 21
221.171536
 31
0.0
  0
LINE
  5
180
100
AcDbEntity
  8
Layer_1
 62
3
100
AcDbLine
 10
-87.001319
 20
221.171536
 30
0.0
 11
-199.996027
 21
221.171536
 31
0.0
  0
LINE
  5
181
100
AcDbEntity
  8
Layer_1
 62
3
100
AcDbLine
 10
-199.996027
 20
221.171536
 30
0.0
 11
-199.996027
 21
381.173911
 31
0.0
  0
LINE
  5
182
100
AcDbEntity
  8
Layer_1
 62
3
100
AcDbLine
 10
-199.996027
 20
381.173911
 30
0.0
 11
-199.996027
 21
381.173911
 31
0.0
  0
LINE
  5
183
100
AcDbEntity
  8
Layer_1
 62
2
100
AcDbLine
 10
62.004503
 20
201.022684
 30
0.0
 11
62.004503
 21
198.024073
 31
0.0
  0
LINE
  5
184
100
AcDbEntity
  8
Layer_1
 62
2
100
AcDbLine
 10
62.004503
 20
198.024073
 30
0.0
 11
5.004449
 21
198.050517
 31
0.0
  0
LINE
  5
185
100
AcDbEntity
  8
Layer_1
 62
2
100
AcDbLine
 10
5.004449
 20
198.050517
 30
0.0
 11
5.004449
 21
141.023961
 31
0.0
  0
LINE
  5
186
100
AcDbEntity
  8
Layer_1
 62
2
100
AcDbLine
 10
5.004449
 20
141.023961
 30
0.0
 11
2.005838
 21
141.023961
 31
0.0
  0
LINE
  5
187
100
AcDbEntity
  8
Layer_1
 62
2
100
AcDbLine
 10
2.005838
 20
141.023961
 30
0.0
 11
2.005838
 21
61.022794
 31
0.0
  0
LINE
  5
188
100
AcDbEntity
  8
Layer_1
 62
2
100
AcDbLine
 10
2.005838
 20
61.022794
 30
0.0
 11
5.004449
 21
61.022794
 31
0.0
  0
LINE
  5
189
100
AcDbEntity
  8
Layer_1
 62
2
100
AcDbLine
 10
5.004449
 20
61.022794
 30
0.0
 11
5.004449
 21
4.049183
 31
0.0
  0
LINE
  5
18a
100
AcDbEntity
  8
Layer_1
 62
2
100
AcDbLine
 10
5.004449
 20
4.049183
 30
0.0
 11
62.004503
 21
4.022654
 31
0.0
  0
LINE
  5
18b
100
AcDbEntity
  8
Layer_1
 62
2
100
AcDbLine
 10
62.004503
 20
4.022654
 30
0.0
 11
62.004503
 21
1.024043
 31
0.0
  0
LINE
  5
18c
100
AcDbEntity
  8
Layer_1
 62
2
100
AcDbLine
 10
62.004503
 20
1.024043
 30
0.0
 11
142.005699
 21
1.050572
 31
0.0
  0
LINE
  5
18d
100
AcDbEntity
  8
Layer_1
 62
2
100
AcDbLine
 10
142.005699
 20
1.050572
 30
0.0
 11
142.005699
 21
4.049183
 31
0.0
  0
LINE
  5
18e
100
AcDbEntity
  8
Layer_1
 62
2
100
AcDbLine
 10
142.005699
 20
4.049183
 30
0.0
 11
199.005783
 21
4.022654
 31
0.0
  0
LINE
  5
18f
100
AcDbEntity
  8
Layer_1
 62
2
100
AcDbLine
 10
199.005783
 20
4.022654
 30
0.0
 11
199.005783
 21
61.022738
 31
0.0
  0
LINE
  5
190
100
AcDbEntity
  8
Layer_1
 62
2
100
AcDbLine
 10
199.005783
 20
61.022738
 30
0.0
 11
202.004394
 21
61.022738
 31
0.0
  0
LINE
  5
191
100
AcDbEntity
  8
Layer_1
 62
2
100
AcDbLine
 10
202.004394
 20
61.022738
 30
0.0
 11
202.004394
 21
141.023904
 31
0.0
  0
LINE
  5
192
100
AcDbEntity
  8
Layer_1
 62
2
100
AcDbLine
 10
202.004394
 20
141.023904
 30
0.0
 11
199.005783
 21
141.023904
 31
0.0
  0
LINE
  5
193
100
AcDbEntity
  8
Layer_1
 62
2
100
AcDbLine
 10
199.005783
 20
141.023904
 30
0.0
 11
199.005783
 21
198.024002
 31
0.0
  0
LINE
  5
194
100
AcDbEntity
  8
Layer_1
 62
2
100
AcDbLine
 10
199.005783
 20
198.024002
 30
0.0
 11
142.005699
 21
198.050446
 31
0.0
  0
LINE
  5
195
100
AcDbEntity
  8
Layer_1
 62
2
100
AcDbLine
 10
142.005699
 20
198.050446
 30
0.0
 11
142.005699
 21
201.022599
 31
0.0
  0
LINE
  5
196
100
AcDbEntity
  8
Layer_1
 62
2
100
AcDbLine
 10
142.005699
 20
201.022599
 30
0.0
 11
62.004503
 21
201.022599
 31
0.0
  0
LINE
  5
197
100
AcDbEntity
  8
Layer_1
 62
2
100
AcDbLine
 10
62.004503
 20
201.022599
 30
0.0
 11
62.004503
 21
201.022684
 31
0.0
  0
LINE
  5
198
100
AcDbEntity
  8
Layer_1
 62
2
100
AcDbLine
 10
62.004503
 20
1.024128
 30
0.0
 11
62.004503
 21
1.024128
 31
0.0
  0
LINE
  5
199
100
AcDbEntity
  8
Layer_1
 62
2
100
AcDbLine
 10
62.004503
 20
121.021489
 30
0.0
 11
65.003114
 21
121.021489
 31
0.0
  0
LINE
  5
19a
100
AcDbEntity
  8
Layer_1
 62
2
100
AcDbLine
 10
65.003114
 20
121.021489
 30
0.0
 11
65.003114
 21
81.025323
 31
0.0
  0
LINE
  5
19b
100
AcDbEntity
  8
Layer_1
 62
2
100
AcDbLine
 10
65.003114
 20
81.025323
 30
0.0
 11
62.004503
 21
81.025323
 31
0.0
  0
LINE
  5
19c
100
AcDbEntity
  8
Layer_1
 62
2
100
AcDbLine
 10
62.004503
 20
81.025323
 30
0.0
 11
62.004503
 21
121.021489
 31
0.0
  0
ENDSEC
  0
SECTION
  2
OBJECTS
  0
DICTIONARY
  5
C
330
0
100
AcDbDictionary
  3
ACAD_GROUP
350
D
  3
ACAD_MLINESTYLE
350
17
  0
DICTIONARY
  5
D
330
C
100
AcDbDictionary
  0
DICTIONARY
  5
1A
330
C
100
AcDbDictionary
  0
DICTIONARY
  5
17
330
C
100
AcDbDictionary
  3
STANDARD
350
18
  0
DICTIONARY
  5
19
330
C
100
AcDbDictionary
  0
ENDSEC
  0
EOF
